<svg xmlns="http://www.w3.org/2000/svg" viewBox="0 0 240 210" fill="#fff" stroke="#000" stroke-width="3.5" stroke-linecap="round" stroke-linejoin="round">
<title>Comida rápida: dos niños comiendo hamburguesas</title>
<circle cx="44" cy="58" r="6"/>
<circle cx="92" cy="58" r="6"/>
<path d="M58,82 C48,84 42,90 42,98 L42,156 L94,156 L94,98 C94,90 88,84 78,82 Z"/>
<path d="M53,88 C41,88 31,93 27,104 Q39,111 52,104 Z"/>
<path d="M83,88 C95,88 105,93 109,104 Q97,111 84,104 Z"/>
<ellipse cx="68" cy="57" rx="24" ry="26"/>
<circle cx="59" cy="59" r="3" fill="#000" stroke="none"/>
<circle cx="77" cy="59" r="3" fill="#000" stroke="none"/>
<path d="M60,65 L76,65 Q75,74 68,74 Q61,74 60,65 Z"/>
<path d="M42,45 C39,23 53,10 68,10 C83,10 97,23 94,45 Z"/>
<path d="M68,11 L68,38" fill="none"/>
<circle cx="68" cy="10.5" r="3" fill="#000" stroke="none"/>
<path d="M39,43 C49,37 87,37 97,43 C100,48 85,51.5 68,51.5 C51,51.5 36,48 39,43 Z"/>
<path d="M44,116 L92,116 C93,124 87,128 68,128 C49,128 43,124 44,116 Z"/>
<path d="M41,106 Q41,104 43,104 L93,104 Q95,104 95,106 L95,115 Q95,118 92,118 L44,118 Q41,118 41,115 Z"/>
<path d="M39,96 L97,96 L97,105 Q89.75,113 82.5,105 Q75.25,113 68,105 Q60.75,113 53.5,105 Q46.25,113 39,105 Z"/>
<path d="M43,99 C42,84 54,80 68,80 C82,80 94,84 93,99 Q68,104 43,99 Z"/>
<circle cx="56" cy="89" r="1.9" fill="#000" stroke="none"/>
<circle cx="66" cy="85" r="1.9" fill="#000" stroke="none"/>
<circle cx="77" cy="88" r="1.9" fill="#000" stroke="none"/>
<circle cx="64" cy="94" r="1.9" fill="#000" stroke="none"/>
<circle cx="82" cy="94" r="1.9" fill="#000" stroke="none"/>
<path d="M35,98 L24,160" fill="none" stroke-width="17"/>
<path d="M35,98 L24,160" fill="none" stroke="#fff" stroke-width="10"/>
<path d="M101,98 L112,160" fill="none" stroke-width="17"/>
<path d="M101,98 L112,160" fill="none" stroke="#fff" stroke-width="10"/>
<circle cx="38" cy="114" r="9.5"/>
<path d="M42,108 Q37,103 32,107" fill="none"/>
<circle cx="98" cy="114" r="9.5"/>
<path d="M94,108 Q99,103 104,107" fill="none"/>
<path d="M162,82 C152,84 146,90 146,98 L146,156 L198,156 L198,98 C198,90 192,84 182,82 Z"/>
<path d="M157,88 C145,88 135,93 131,104 Q143,111 156,104 Z"/>
<path d="M187,88 C199,88 209,93 213,104 Q201,111 188,104 Z"/>
<path d="M146,50 C136,50 130,60 131,72 C132,82 136,88 141,87 C146,86 147,76 147,66 Z"/>
<path d="M198,50 C208,50 214,60 213,72 C212,82 208,88 203,87 C198,86 197,76 197,66 Z"/>
<ellipse cx="172" cy="57" rx="24" ry="26"/>
<path d="M158,60 Q163,53 168,60" fill="none"/>
<path d="M176,60 Q181,53 186,60" fill="none"/>
<path d="M164,65 L180,65 Q179,74 172,74 Q165,74 164,65 Z"/>
<path d="M145,64 C141,34 155,19 172,19 C189,19 203,34 199,64 L195,64 C194,57 192,51 189,47 Q181,52 172,42 Q163,52 155,47 C152,51 150,57 149,64 Z"/>
<path d="M139,48 L150,45 L152,56 L141,59 Z"/>
<path d="M205,48 L194,45 L192,56 L203,59 Z"/>
<path d="M148,116 L196,116 C197,124 191,128 172,128 C153,128 147,124 148,116 Z"/>
<path d="M145,106 Q145,104 147,104 L197,104 Q199,104 199,106 L199,115 Q199,118 196,118 L148,118 Q145,118 145,115 Z"/>
<path d="M143,96 L201,96 L201,105 Q193.75,113 186.5,105 Q179.25,113 172,105 Q164.75,113 157.5,105 Q150.25,113 143,105 Z"/>
<path d="M147,99 C146,84 158,80 172,80 C186,80 198,84 197,99 Q172,104 147,99 Z"/>
<circle cx="160" cy="89" r="1.9" fill="#000" stroke="none"/>
<circle cx="170" cy="85" r="1.9" fill="#000" stroke="none"/>
<circle cx="181" cy="88" r="1.9" fill="#000" stroke="none"/>
<circle cx="168" cy="94" r="1.9" fill="#000" stroke="none"/>
<circle cx="186" cy="94" r="1.9" fill="#000" stroke="none"/>
<path d="M139,98 L128,160" fill="none" stroke-width="17"/>
<path d="M139,98 L128,160" fill="none" stroke="#fff" stroke-width="10"/>
<path d="M205,98 L216,160" fill="none" stroke-width="17"/>
<path d="M205,98 L216,160" fill="none" stroke="#fff" stroke-width="10"/>
<circle cx="142" cy="114" r="9.5"/>
<path d="M146,108 Q141,103 136,107" fill="none"/>
<circle cx="202" cy="114" r="9.5"/>
<path d="M198,108 Q203,103 208,107" fill="none"/>
<path d="M 14,150 L 226,150 Q 230,150 230,154 L 230,162 Q 230,166 226,166 L 14,166 Q 10,166 10,162 L 10,154 Q 10,150 14,150 Z"/>
<path d="M 16,166 L 16,189 Q 26.4,205 36.8,189 Q 47.2,205 57.6,189 Q 68,205 78.4,189 Q 88.8,205 99.2,189 Q 109.6,205 120,189 Q 130.4,205 140.8,189 Q 151.2,205 161.6,189 Q 172,205 182.4,189 Q 192.8,205 203.2,189 Q 213.6,205 224,189 L 224,166 Z"/>
<path d="M19,132 L14,112" fill="none" stroke-width="12"/>
<path d="M19,132 L14,112" fill="none" stroke="#fff" stroke-width="5"/>
<path d="M12,134 L30,134 L28,158.5 Q28,160 26.5,160 L15.5,160 Q14,160 14,158.5 Z"/>
<path d="M12.8,142 L29.2,142 L28.6,151 L13.4,151 Z"/>
<path d="M10,131 Q10,128.5 12.5,128.5 L29.5,128.5 Q32,128.5 32,131 L32,134.5 L10,134.5 Z"/>
<path d="M217,132 L222,112" fill="none" stroke-width="12"/>
<path d="M217,132 L222,112" fill="none" stroke="#fff" stroke-width="5"/>
<path d="M210,134 L228,134 L226,158.5 Q226,160 224.5,160 L213.5,160 Q212,160 212,158.5 Z"/>
<path d="M210.8,142 L227.2,142 L226.6,151 L211.4,151 Z"/>
<path d="M208,131 Q208,128.5 210.5,128.5 L227.5,128.5 Q230,128.5 230,131 L230,134.5 L208,134.5 Z"/>
<path d="M89,158 L89,144 C89,137 94,137 94,134 L102,134 C102,137 107,137 107,144 L107,158 Q107,161 104,161 L92,161 Q89,161 89,158 Z"/>
<path d="M91.5,147 L104.5,147 L104.5,159 L91.5,159 Z"/>
<path d="M94,135 L94,130 L98,122 L102,130 L102,135 Z"/>
<path d="M133,158 L133,144 C133,137 138,137 138,134 L146,134 C146,137 151,137 151,144 L151,158 Q151,161 148,161 L136,161 Q133,161 133,158 Z"/>
<path d="M135.5,147 L148.5,147 L148.5,159 L135.5,159 Z"/>
<path d="M137,135 L137,125 L147,125 L147,135 Z"/>
<path d="M105,146 L103,124 L111,123 L113,146 Z"/>
<path d="M111,146 L112,117 L120,116 L119,146 Z"/>
<path d="M117,146 L116,120 L124,119 L125,146 Z"/>
<path d="M123,146 L125,126 L133,125 L131,146 Z"/>
<path d="M106,141 Q120,147 134,141 L131,161.5 Q131,163 129,163 L111,163 Q109,163 109,161.5 Z"/>
<ellipse cx="120" cy="153.5" rx="4.5" ry="4.5"/>
</svg>
