<svg xmlns="http://www.w3.org/2000/svg" viewBox="0 0 200 200" fill="#fff" stroke="#000" stroke-width="4" stroke-linecap="round" stroke-linejoin="round">
<title>Intestino grueso</title>

<path d="M40,166 C32,180 44,192 58,186" fill="none" stroke="#000" stroke-width="12"/>
<path d="M40,166 C32,180 44,192 58,186" fill="none" stroke="#fff" stroke-width="4"/>
<circle cx="44" cy="154" r="20"/>
<path d="M44,148 L44,64 C44,42 64,38 80,46 C96,54 112,54 124,46 C142,38 156,48 156,66 L156,124 C156,146 130,146 122,156 C114,166 118,174 104,182" fill="none" stroke="#000" stroke-width="32" />
<path d="M44,148 L44,64 C44,42 64,38 80,46 C96,54 112,54 124,46 C142,38 156,48 156,66 L156,124 C156,146 130,146 122,156 C114,166 118,174 104,182" fill="none" stroke="#fff" stroke-width="24" />
<path d="M44,148 L44,64 C44,42 64,38 80,46 C96,54 112,54 124,46 C142,38 156,48 156,66 L156,124 C156,146 130,146 122,156 C114,166 118,174 104,182" fill="none" stroke="#000" stroke-width="24" stroke-linecap="butt" stroke-dasharray="2.4 15"/>
<circle cx="44" cy="154" r="16" stroke="none"/>
<path d="M44,140 L44,150" stroke="none"/>

</svg>
